<svg width="28" height="28" viewBox="0 0 28 28" fill="none" xmlns="http://www.w3.org/2000/svg">
<path d="M22.4815 6.21871C20.9298 5.49538 19.2498 4.97038 17.4998 4.66705C17.4845 4.66656 17.4692 4.66943 17.4551 4.67548C17.441 4.68153 17.4284 4.6906 17.4181 4.70205C17.2081 5.08705 16.9631 5.58871 16.7998 5.97371C14.9436 5.69371 13.056 5.69371 11.1998 5.97371C11.0365 5.57705 10.7915 5.08705 10.5698 4.70205C10.5581 4.67871 10.5231 4.66705 10.4881 4.66705C8.73814 4.97038 7.06981 5.49538 5.50648 6.21871C5.49481 6.21871 5.48314 6.23038 5.47148 6.24205C2.29814 10.9904 1.42314 15.6104 1.85481 20.1837C1.85481 20.207 1.86648 20.2304 1.88981 20.242C3.98981 21.782 6.00815 22.7154 8.00315 23.3337C8.03815 23.3454 8.07314 23.3337 8.08481 23.3104C8.55148 22.6687 8.97148 21.992 9.33315 21.2804C9.35648 21.2337 9.33315 21.187 9.28648 21.1754C8.62148 20.9187 7.99148 20.6154 7.37315 20.2654C7.32648 20.242 7.32648 20.172 7.36148 20.137C7.48981 20.0437 7.61814 19.9387 7.74648 19.8454C7.76981 19.822 7.80481 19.822 7.82815 19.8337C11.8415 21.6654 16.1698 21.6654 20.1365 19.8337C20.1598 19.822 20.1948 19.822 20.2181 19.8454C20.3465 19.9504 20.4748 20.0437 20.6031 20.1487C20.6498 20.1837 20.6498 20.2537 20.5915 20.277C19.9848 20.6387 19.3431 20.9304 18.6781 21.187C18.6315 21.1987 18.6198 21.257 18.6315 21.292C19.0048 22.0037 19.4248 22.6804 19.8798 23.322C19.9148 23.3337 19.9498 23.3454 19.9848 23.3337C21.9915 22.7154 24.0098 21.782 26.1098 20.242C26.1331 20.2304 26.1448 20.207 26.1448 20.1837C26.6581 14.8987 25.2931 10.3137 22.5281 6.24205C22.5165 6.23038 22.5048 6.21871 22.4815 6.21871ZM9.93981 17.3954C8.73815 17.3954 7.73481 16.287 7.73481 14.922C7.73481 13.557 8.71481 12.4487 9.93981 12.4487C11.1765 12.4487 12.1565 13.5687 12.1448 14.922C12.1448 16.287 11.1648 17.3954 9.93981 17.3954ZM18.0715 17.3954C16.8698 17.3954 15.8665 16.287 15.8665 14.922C15.8665 13.557 16.8465 12.4487 18.0715 12.4487C19.3081 12.4487 20.2881 13.5687 20.2765 14.922C20.2765 16.287 19.3081 17.3954 18.0715 17.3954Z" fill="white"/>
</svg>
