<svg width="28" height="28" viewBox="0 0 28 28" fill="none" xmlns="http://www.w3.org/2000/svg">
<path d="M8.82656 24.4998C8.02462 24.4998 7.56067 24.4861 7.54123 24.4853L7.21724 24.4753L2 19.5464V13.7872L3.84725 12.5427L2.68815 11.4289V4.56462L3.55799 4.60546C4.56961 4.65278 5.5789 4.67694 6.5576 4.67694C11.1486 4.67694 14.5368 4.14746 16.5709 3.70341C18.7732 3.22249 19.9057 2.73535 19.9168 2.73037L20.4409 2.5L20.847 2.89225L25.7488 7.60227V12.9807L24.7043 13.9844L26.0003 15.2802V22.345L25.4147 22.5181C19.3632 24.3072 11.7984 24.5003 8.82682 24.5003L8.82656 24.4998Z" fill="white"/>
<path d="M3.51725 5.40188V11.0994L5.13201 12.6509L2.8291 14.2025V19.2131L7.56736 23.6896C7.56736 23.6896 17.5996 23.9949 25.1703 21.7564V15.6012L23.5423 13.9734L24.9189 12.6507V7.93271L20.2599 3.45605C20.2599 3.45605 14.6482 5.92338 3.51725 5.40188Z" fill="#181818"/>
<path d="M9.71174 11.3276V14.1C9.71174 14.1 14.8206 14.3289 17.3882 13.7185C17.3882 13.7185 13.7087 17.0505 9.23535 19.543V21.8577C9.23535 21.8577 18.2088 22.4427 23.6883 20.3061V17.5591C23.6883 17.5591 20.8709 18.901 15.1384 19.1742L23.2913 12.345V9.91602C23.2913 9.91602 18.8972 11.5311 9.712 11.3276H9.71174Z" fill="white"/>
</svg>
